<?xml version="1.0" encoding="UTF-8" standalone="no"?>
<!DOCTYPE svg PUBLIC "-//W3C//DTD SVG 1.0//EN"
 "http://www.w3.org/TR/2001/REC-SVG-20010904/DTD/svg10.dtd" [
 <!ATTLIST svg xmlns:xlink CDATA #FIXED "http://www.w3.org/1999/xlink">
]>
<!-- Generated by Graphviz version 2.12 (Tue Sep  4 16:56:48 UTC 2007)
     For user: (georg) Georg Kaspar,,, -->
<!-- Title: _anonymous_0 Pages: 1 -->
<svg width="7.94in" height="10.60in"
 xmlns="http://www.w3.org/2000/svg" xmlns:xlink="http://www.w3.org/1999/xlink">
<g id="graph0" class="graph" transform="scale(1.33333 1.33333) rotate(0) translate(4 760)">
<title>_anonymous_0</title>
<polygon style="fill:white;stroke:white;" points="-4,4 -4,-760 568,-760 568,4 -4,4"/>
<!-- 1 -->
<g id="node1" class="node"><title>1</title>
<polygon style="fill:none;stroke:black;" points="164,-612 110,-612 110,-576 164,-576 164,-612"/>
<text text-anchor="middle" x="137" y="-590" style="font-family:Nimbus Roman No9 L;font-weight:regular;font-size:11.34pt;">1</text>
</g>
<!-- 3 -->
<g id="node2" class="node"><title>3</title>
<polygon style="fill:none;stroke:black;" points="54,-540 1.42109e-14,-540 0,-504 54,-504 54,-540"/>
<text text-anchor="middle" x="27" y="-518" style="font-family:Nimbus Roman No9 L;font-weight:regular;font-size:11.34pt;">3</text>
</g>
<!-- 1&#45;&#45;3 -->
<g id="edge2" class="edge"><title>1&#45;&#45;3</title>
<path style="fill:none;stroke:black;" d="M110,-576C93,-565 71,-551 54,-540"/>
</g>
<!-- 2 -->
<g id="node4" class="node"><title>2</title>
<polygon style="fill:none;stroke:black;" points="126,-396 72,-396 72,-360 126,-360 126,-396"/>
<text text-anchor="middle" x="99" y="-374" style="font-family:Nimbus Roman No9 L;font-weight:regular;font-size:11.34pt;">2</text>
</g>
<!-- 1&#45;&#45;2 -->
<g id="edge4" class="edge"><title>1&#45;&#45;2</title>
<path style="fill:none;stroke:black;" d="M121,-576C114,-566 105,-553 101,-540 86,-490 92,-427 96,-396"/>
</g>
<!-- 14 -->
<g id="node6" class="node"><title>14</title>
<polygon style="fill:none;stroke:black;" points="164,-540 110,-540 110,-504 164,-504 164,-540"/>
<text text-anchor="middle" x="137" y="-518" style="font-family:Nimbus Roman No9 L;font-weight:regular;font-size:11.34pt;">14</text>
</g>
<!-- 1&#45;&#45;14 -->
<g id="edge6" class="edge"><title>1&#45;&#45;14</title>
<path style="fill:none;stroke:black;" d="M137,-576C137,-565 137,-551 137,-540"/>
</g>
<!-- 4 -->
<g id="node8" class="node"><title>4</title>
<polygon style="fill:none;stroke:black;" points="236,-540 182,-540 182,-504 236,-504 236,-540"/>
<text text-anchor="middle" x="209" y="-518" style="font-family:Nimbus Roman No9 L;font-weight:regular;font-size:11.34pt;">4</text>
</g>
<!-- 1&#45;&#45;4 -->
<g id="edge8" class="edge"><title>1&#45;&#45;4</title>
<path style="fill:none;stroke:black;" d="M155,-576C166,-565 180,-551 191,-540"/>
</g>
<!-- 5 -->
<g id="node10" class="node"><title>5</title>
<polygon style="fill:none;stroke:black;" points="54,-468 1.42109e-14,-468 0,-432 54,-432 54,-468"/>
<text text-anchor="middle" x="27" y="-446" style="font-family:Nimbus Roman No9 L;font-weight:regular;font-size:11.34pt;">5</text>
</g>
<!-- 3&#45;&#45;5 -->
<g id="edge10" class="edge"><title>3&#45;&#45;5</title>
<path style="fill:none;stroke:black;" d="M27,-504C27,-493 27,-479 27,-468"/>
</g>
<!-- 7 -->
<g id="node12" class="node"><title>7</title>
<polygon style="fill:none;stroke:black;" points="126,-324 72,-324 72,-288 126,-288 126,-324"/>
<text text-anchor="middle" x="99" y="-302" style="font-family:Nimbus Roman No9 L;font-weight:regular;font-size:11.34pt;">7</text>
</g>
<!-- 2&#45;&#45;7 -->
<g id="edge12" class="edge"><title>2&#45;&#45;7</title>
<path style="fill:none;stroke:black;" d="M99,-360C99,-349 99,-335 99,-324"/>
</g>
<!-- 8 -->
<g id="node14" class="node"><title>8</title>
<polygon style="fill:none;stroke:black;" points="236,-468 182,-468 182,-432 236,-432 236,-468"/>
<text text-anchor="middle" x="209" y="-446" style="font-family:Nimbus Roman No9 L;font-weight:regular;font-size:11.34pt;">8</text>
</g>
<!-- 14&#45;&#45;8 -->
<g id="edge14" class="edge"><title>14&#45;&#45;8</title>
<path style="fill:none;stroke:black;" d="M155,-504C166,-493 180,-479 191,-468"/>
</g>
<!-- 8a -->
<g id="node16" class="node"><title>8a</title>
<polygon style="fill:none;stroke:black;" points="164,-468 110,-468 110,-432 164,-432 164,-468"/>
<text text-anchor="middle" x="137" y="-446" style="font-family:Nimbus Roman No9 L;font-weight:regular;font-size:11.34pt;">8a</text>
</g>
<!-- 14&#45;&#45;8a -->
<g id="edge16" class="edge"><title>14&#45;&#45;8a</title>
<path style="fill:none;stroke:black;" d="M137,-504C137,-493 137,-479 137,-468"/>
</g>
<!-- 4&#45;&#45;8 -->
<g id="edge18" class="edge"><title>4&#45;&#45;8</title>
<path style="fill:none;stroke:black;" d="M209,-504C209,-493 209,-479 209,-468"/>
</g>
<!-- 4&#45;&#45;8a -->
<g id="edge20" class="edge"><title>4&#45;&#45;8a</title>
<path style="fill:none;stroke:black;" d="M191,-504C180,-493 166,-479 155,-468"/>
</g>
<!-- 6 -->
<g id="node85" class="node"><title>6</title>
<polygon style="fill:none;stroke:black;" points="54,-396 1.42109e-14,-396 0,-360 54,-360 54,-396"/>
<text text-anchor="middle" x="27" y="-374" style="font-family:Nimbus Roman No9 L;font-weight:regular;font-size:11.34pt;">6</text>
</g>
<!-- 5&#45;&#45;6 -->
<g id="edge96" class="edge"><title>5&#45;&#45;6</title>
<path style="fill:none;stroke:black;" d="M27,-432C27,-421 27,-407 27,-396"/>
</g>
<!-- 9 -->
<g id="node35" class="node"><title>9</title>
<polygon style="fill:none;stroke:black;" points="236,-252 182,-252 182,-216 236,-216 236,-252"/>
<text text-anchor="middle" x="209" y="-230" style="font-family:Nimbus Roman No9 L;font-weight:regular;font-size:11.34pt;">9</text>
</g>
<!-- 7&#45;&#45;9 -->
<g id="edge38" class="edge"><title>7&#45;&#45;9</title>
<path style="fill:none;stroke:black;" d="M126,-288C143,-277 165,-263 182,-252"/>
</g>
<!-- 8&#45;&#45;9 -->
<g id="edge36" class="edge"><title>8&#45;&#45;9</title>
<path style="fill:none;stroke:black;" d="M209,-432C209,-391 209,-293 209,-252"/>
</g>
<!-- 101 -->
<g id="node20" class="node"><title>101</title>
<polygon style="fill:none;stroke:black;" points="272,-612 218,-612 218,-576 272,-576 272,-612"/>
<text text-anchor="middle" x="245" y="-590" style="font-family:Nimbus Roman No9 L;font-weight:regular;font-size:11.34pt;">101</text>
</g>
<!-- 102 -->
<g id="node21" class="node"><title>102</title>
<polygon style="fill:none;stroke:black;" points="308,-540 254,-540 254,-504 308,-504 308,-540"/>
<text text-anchor="middle" x="281" y="-518" style="font-family:Nimbus Roman No9 L;font-weight:regular;font-size:11.34pt;">102</text>
</g>
<!-- 101&#45;&#45;102 -->
<g id="edge22" class="edge"><title>101&#45;&#45;102</title>
<path style="fill:none;stroke:black;" d="M254,-576C260,-565 267,-551 272,-540"/>
</g>
<!-- 103 -->
<g id="node23" class="node"><title>103</title>
<polygon style="fill:none;stroke:black;" points="308,-468 254,-468 254,-432 308,-432 308,-468"/>
<text text-anchor="middle" x="281" y="-446" style="font-family:Nimbus Roman No9 L;font-weight:regular;font-size:11.34pt;">103</text>
</g>
<!-- 102&#45;&#45;103 -->
<g id="edge24" class="edge"><title>102&#45;&#45;103</title>
<path style="fill:none;stroke:black;" d="M281,-504C281,-493 281,-479 281,-468"/>
</g>
<!-- 120 -->
<g id="node25" class="node"><title>120</title>
<polygon style="fill:none;stroke:black;" points="308,-396 254,-396 254,-360 308,-360 308,-396"/>
<text text-anchor="middle" x="281" y="-374" style="font-family:Nimbus Roman No9 L;font-weight:regular;font-size:11.34pt;">120</text>
</g>
<!-- 103&#45;&#45;120 -->
<g id="edge26" class="edge"><title>103&#45;&#45;120</title>
<path style="fill:none;stroke:black;" d="M281,-432C281,-421 281,-407 281,-396"/>
</g>
<!-- 121 -->
<g id="node27" class="node"><title>121</title>
<polygon style="fill:none;stroke:black;" points="308,-324 254,-324 254,-288 308,-288 308,-324"/>
<text text-anchor="middle" x="281" y="-302" style="font-family:Nimbus Roman No9 L;font-weight:regular;font-size:11.34pt;">121</text>
</g>
<!-- 120&#45;&#45;121 -->
<g id="edge28" class="edge"><title>120&#45;&#45;121</title>
<path style="fill:none;stroke:black;" d="M281,-360C281,-349 281,-335 281,-324"/>
</g>
<!-- 122 -->
<g id="node29" class="node"><title>122</title>
<polygon style="fill:none;stroke:black;" points="308,-252 254,-252 254,-216 308,-216 308,-252"/>
<text text-anchor="middle" x="281" y="-230" style="font-family:Nimbus Roman No9 L;font-weight:regular;font-size:11.34pt;">122</text>
</g>
<!-- 121&#45;&#45;122 -->
<g id="edge30" class="edge"><title>121&#45;&#45;122</title>
<path style="fill:none;stroke:black;" d="M281,-288C281,-277 281,-263 281,-252"/>
</g>
<!-- 401 -->
<g id="node31" class="node"><title>401</title>
<polygon style="fill:none;stroke:black;" points="380,-180 326,-180 326,-144 380,-144 380,-180"/>
<text text-anchor="middle" x="353" y="-158" style="font-family:Nimbus Roman No9 L;font-weight:regular;font-size:11.34pt;">401</text>
</g>
<!-- 122&#45;&#45;401 -->
<g id="edge32" class="edge"><title>122&#45;&#45;401</title>
<path style="fill:none;stroke:black;" d="M299,-216C310,-205 324,-191 335,-180"/>
</g>
<!-- 402 -->
<g id="node33" class="node"><title>402</title>
<polygon style="fill:none;stroke:black;" points="380,-108 326,-108 326,-72 380,-72 380,-108"/>
<text text-anchor="middle" x="353" y="-86" style="font-family:Nimbus Roman No9 L;font-weight:regular;font-size:11.34pt;">402</text>
</g>
<!-- 401&#45;&#45;402 -->
<g id="edge34" class="edge"><title>401&#45;&#45;402</title>
<path style="fill:none;stroke:black;" d="M353,-144C353,-133 353,-119 353,-108"/>
</g>
<!-- Rock -->
<g id="node67" class="node"><title>Rock</title>
<polygon style="fill:none;stroke:black;" points="380,-36 326,-36 326,-1.42109e-14 380,-0 380,-36"/>
<text text-anchor="middle" x="353" y="-14" style="font-family:Nimbus Roman No9 L;font-weight:regular;font-size:11.34pt;">Rock</text>
</g>
<!-- 402&#45;&#45;Rock -->
<g id="edge102" class="edge"><title>402&#45;&#45;Rock</title>
<path style="fill:none;stroke:black;" d="M353,-72C353,-61 353,-47 353,-36"/>
</g>
<!-- 9&#45;&#45;Rock -->
<g id="edge106" class="edge"><title>9&#45;&#45;Rock</title>
<path style="fill:none;stroke:black;" d="M221,-216C248,-175 314,-77 341,-36"/>
</g>
<!-- 201 -->
<g id="node38" class="node"><title>201</title>
<polygon style="fill:none;stroke:black;" points="236,-684 182,-684 182,-648 236,-648 236,-684"/>
<text text-anchor="middle" x="209" y="-662" style="font-family:Nimbus Roman No9 L;font-weight:regular;font-size:11.34pt;">201</text>
</g>
<!-- 201&#45;&#45;1 -->
<g id="edge40" class="edge"><title>201&#45;&#45;1</title>
<path style="fill:none;stroke:black;" d="M191,-648C180,-637 166,-623 155,-612"/>
</g>
<!-- 201&#45;&#45;101 -->
<g id="edge42" class="edge"><title>201&#45;&#45;101</title>
<path style="fill:none;stroke:black;" d="M218,-648C224,-637 231,-623 236,-612"/>
</g>
<!-- 202 -->
<g id="node41" class="node"><title>202</title>
<polygon style="fill:none;stroke:black;" points="564,-756 510,-756 510,-720 564,-720 564,-756"/>
<text text-anchor="middle" x="537" y="-734" style="font-family:Nimbus Roman No9 L;font-weight:regular;font-size:11.34pt;">202</text>
</g>
<!-- 203 -->
<g id="node42" class="node"><title>203</title>
<polygon style="fill:none;stroke:black;" points="492,-756 438,-756 438,-720 492,-720 492,-756"/>
<text text-anchor="middle" x="465" y="-734" style="font-family:Nimbus Roman No9 L;font-weight:regular;font-size:11.34pt;">203</text>
</g>
<!-- 241 -->
<g id="node43" class="node"><title>241</title>
<polygon style="fill:none;stroke:black;" points="456,-684 402,-684 402,-648 456,-648 456,-684"/>
<text text-anchor="middle" x="429" y="-662" style="font-family:Nimbus Roman No9 L;font-weight:regular;font-size:11.34pt;">241</text>
</g>
<!-- 203&#45;&#45;241 -->
<g id="edge44" class="edge"><title>203&#45;&#45;241</title>
<path style="fill:none;stroke:black;" d="M456,-720C450,-709 443,-695 438,-684"/>
</g>
<!-- 243 -->
<g id="node45" class="node"><title>243</title>
<polygon style="fill:none;stroke:black;" points="528,-684 474,-684 474,-648 528,-648 528,-684"/>
<text text-anchor="middle" x="501" y="-662" style="font-family:Nimbus Roman No9 L;font-weight:regular;font-size:11.34pt;">243</text>
</g>
<!-- 203&#45;&#45;243 -->
<g id="edge46" class="edge"><title>203&#45;&#45;243</title>
<path style="fill:none;stroke:black;" d="M474,-720C480,-709 487,-695 492,-684"/>
</g>
<!-- 245 -->
<g id="node47" class="node"><title>245</title>
<polygon style="fill:none;stroke:black;" points="528,-612 474,-612 474,-576 528,-576 528,-612"/>
<text text-anchor="middle" x="501" y="-590" style="font-family:Nimbus Roman No9 L;font-weight:regular;font-size:11.34pt;">245</text>
</g>
<!-- 241&#45;&#45;245 -->
<g id="edge48" class="edge"><title>241&#45;&#45;245</title>
<path style="fill:none;stroke:black;" d="M447,-648C458,-637 472,-623 483,-612"/>
</g>
<!-- 244 -->
<g id="node49" class="node"><title>244</title>
<polygon style="fill:none;stroke:black;" points="456,-612 402,-612 402,-576 456,-576 456,-612"/>
<text text-anchor="middle" x="429" y="-590" style="font-family:Nimbus Roman No9 L;font-weight:regular;font-size:11.34pt;">244</text>
</g>
<!-- 241&#45;&#45;244 -->
<g id="edge50" class="edge"><title>241&#45;&#45;244</title>
<path style="fill:none;stroke:black;" d="M429,-648C429,-637 429,-623 429,-612"/>
</g>
<!-- 246 -->
<g id="node51" class="node"><title>246</title>
<polygon style="fill:none;stroke:black;" points="384,-612 330,-612 330,-576 384,-576 384,-612"/>
<text text-anchor="middle" x="357" y="-590" style="font-family:Nimbus Roman No9 L;font-weight:regular;font-size:11.34pt;">246</text>
</g>
<!-- 241&#45;&#45;246 -->
<g id="edge52" class="edge"><title>241&#45;&#45;246</title>
<path style="fill:none;stroke:black;" d="M411,-648C400,-637 386,-623 375,-612"/>
</g>
<!-- 243&#45;&#45;245 -->
<g id="edge54" class="edge"><title>243&#45;&#45;245</title>
<path style="fill:none;stroke:black;" d="M501,-648C501,-637 501,-623 501,-612"/>
</g>
<!-- 243&#45;&#45;244 -->
<g id="edge56" class="edge"><title>243&#45;&#45;244</title>
<path style="fill:none;stroke:black;" d="M483,-648C472,-637 458,-623 447,-612"/>
</g>
<!-- 243&#45;&#45;246 -->
<g id="edge60" class="edge"><title>243&#45;&#45;246</title>
<path style="fill:none;stroke:black;" d="M474,-652C448,-640 410,-621 384,-608"/>
</g>
<!-- 247 -->
<g id="node55" class="node"><title>247</title>
<polygon style="fill:none;stroke:black;" points="517,-180 463,-180 463,-144 517,-144 517,-180"/>
<text text-anchor="middle" x="490" y="-158" style="font-family:Nimbus Roman No9 L;font-weight:regular;font-size:11.34pt;">247</text>
</g>
<!-- 243&#45;&#45;247 -->
<g id="edge58" class="edge"><title>243&#45;&#45;247</title>
<path style="fill:none;stroke:black;" d="M515,-648C523,-638 531,-625 537,-612 552,-574 556,-562 556,-522 556,-522 556,-522 556,-306 556,-257 524,-206 505,-180"/>
</g>
<!-- 251 -->
<g id="node58" class="node"><title>251</title>
<polygon style="fill:none;stroke:black;" points="435,-396 381,-396 381,-360 435,-360 435,-396"/>
<text text-anchor="middle" x="408" y="-374" style="font-family:Nimbus Roman No9 L;font-weight:regular;font-size:11.34pt;">251</text>
</g>
<!-- 245&#45;&#45;251 -->
<g id="edge62" class="edge"><title>245&#45;&#45;251</title>
<path style="fill:none;stroke:black;" d="M506,-576C514,-544 526,-478 499,-432 485,-408 456,-394 435,-386"/>
</g>
<!-- 248 -->
<g id="node60" class="node"><title>248</title>
<polygon style="fill:none;stroke:black;" points="456,-540 402,-540 402,-504 456,-504 456,-540"/>
<text text-anchor="middle" x="429" y="-518" style="font-family:Nimbus Roman No9 L;font-weight:regular;font-size:11.34pt;">248</text>
</g>
<!-- 244&#45;&#45;248 -->
<g id="edge64" class="edge"><title>244&#45;&#45;248</title>
<path style="fill:none;stroke:black;" d="M429,-576C429,-565 429,-551 429,-540"/>
</g>
<!-- 246&#45;&#45;251 -->
<g id="edge66" class="edge"><title>246&#45;&#45;251</title>
<path style="fill:none;stroke:black;" d="M352,-576C345,-545 334,-480 355,-432 360,-418 372,-405 382,-396"/>
</g>
<!-- 247&#45;&#45;Rock -->
<g id="edge74" class="edge"><title>247&#45;&#45;Rock</title>
<path style="fill:none;stroke:black;" d="M473,-144C447,-116 397,-64 370,-36"/>
</g>
<!-- 301 -->
<g id="node73" class="node"><title>301</title>
<polygon style="fill:none;stroke:black;" points="380,-324 326,-324 326,-288 380,-288 380,-324"/>
<text text-anchor="middle" x="353" y="-302" style="font-family:Nimbus Roman No9 L;font-weight:regular;font-size:11.34pt;">301</text>
</g>
<!-- 251&#45;&#45;301 -->
<g id="edge80" class="edge"><title>251&#45;&#45;301</title>
<path style="fill:none;stroke:black;" d="M394,-360C386,-349 375,-335 367,-324"/>
</g>
<!-- 310 -->
<g id="node75" class="node"><title>310</title>
<polygon style="fill:none;stroke:black;" points="452,-324 398,-324 398,-288 452,-288 452,-324"/>
<text text-anchor="middle" x="425" y="-302" style="font-family:Nimbus Roman No9 L;font-weight:regular;font-size:11.34pt;">310</text>
</g>
<!-- 251&#45;&#45;310 -->
<g id="edge82" class="edge"><title>251&#45;&#45;310</title>
<path style="fill:none;stroke:black;" d="M412,-360C415,-349 418,-335 421,-324"/>
</g>
<!-- 250 -->
<g id="node69" class="node"><title>250</title>
<polygon style="fill:none;stroke:black;" points="490,-468 436,-468 436,-432 490,-432 490,-468"/>
<text text-anchor="middle" x="463" y="-446" style="font-family:Nimbus Roman No9 L;font-weight:regular;font-size:11.34pt;">250</text>
</g>
<!-- 248&#45;&#45;250 -->
<g id="edge76" class="edge"><title>248&#45;&#45;250</title>
<path style="fill:none;stroke:black;" d="M438,-504C443,-493 450,-479 455,-468"/>
</g>
<!-- 249 -->
<g id="node71" class="node"><title>249</title>
<polygon style="fill:none;stroke:black;" points="418,-468 364,-468 364,-432 418,-432 418,-468"/>
<text text-anchor="middle" x="391" y="-446" style="font-family:Nimbus Roman No9 L;font-weight:regular;font-size:11.34pt;">249</text>
</g>
<!-- 248&#45;&#45;249 -->
<g id="edge78" class="edge"><title>248&#45;&#45;249</title>
<path style="fill:none;stroke:black;" d="M419,-504C413,-493 406,-479 400,-468"/>
</g>
<!-- 242 -->
<g id="node63" class="node"><title>242</title>
<polygon style="fill:none;stroke:black;" points="384,-684 330,-684 330,-648 384,-648 384,-684"/>
<text text-anchor="middle" x="357" y="-662" style="font-family:Nimbus Roman No9 L;font-weight:regular;font-size:11.34pt;">242</text>
</g>
<!-- 242&#45;&#45;245 -->
<g id="edge68" class="edge"><title>242&#45;&#45;245</title>
<path style="fill:none;stroke:black;" d="M384,-652C410,-640 448,-621 474,-608"/>
</g>
<!-- 242&#45;&#45;244 -->
<g id="edge70" class="edge"><title>242&#45;&#45;244</title>
<path style="fill:none;stroke:black;" d="M375,-648C386,-637 400,-623 411,-612"/>
</g>
<!-- 242&#45;&#45;246 -->
<g id="edge72" class="edge"><title>242&#45;&#45;246</title>
<path style="fill:none;stroke:black;" d="M357,-648C357,-637 357,-623 357,-612"/>
</g>
<!-- 250&#45;&#45;251 -->
<g id="edge84" class="edge"><title>250&#45;&#45;251</title>
<path style="fill:none;stroke:black;" d="M449,-432C441,-421 430,-407 422,-396"/>
</g>
<!-- 249&#45;&#45;251 -->
<g id="edge86" class="edge"><title>249&#45;&#45;251</title>
<path style="fill:none;stroke:black;" d="M395,-432C398,-421 401,-407 404,-396"/>
</g>
<!-- 302 -->
<g id="node79" class="node"><title>302</title>
<polygon style="fill:none;stroke:black;" points="380,-252 326,-252 326,-216 380,-216 380,-252"/>
<text text-anchor="middle" x="353" y="-230" style="font-family:Nimbus Roman No9 L;font-weight:regular;font-size:11.34pt;">302</text>
</g>
<!-- 301&#45;&#45;302 -->
<g id="edge88" class="edge"><title>301&#45;&#45;302</title>
<path style="fill:none;stroke:black;" d="M353,-288C353,-277 353,-263 353,-252"/>
</g>
<!-- 311 -->
<g id="node81" class="node"><title>311</title>
<polygon style="fill:none;stroke:black;" points="452,-252 398,-252 398,-216 452,-216 452,-252"/>
<text text-anchor="middle" x="425" y="-230" style="font-family:Nimbus Roman No9 L;font-weight:regular;font-size:11.34pt;">311</text>
</g>
<!-- 301&#45;&#45;311 -->
<g id="edge90" class="edge"><title>301&#45;&#45;311</title>
<path style="fill:none;stroke:black;" d="M371,-288C382,-277 396,-263 407,-252"/>
</g>
<!-- 310&#45;&#45;302 -->
<g id="edge92" class="edge"><title>310&#45;&#45;302</title>
<path style="fill:none;stroke:black;" d="M407,-288C396,-277 382,-263 371,-252"/>
</g>
<!-- 310&#45;&#45;311 -->
<g id="edge94" class="edge"><title>310&#45;&#45;311</title>
<path style="fill:none;stroke:black;" d="M425,-288C425,-277 425,-263 425,-252"/>
</g>
<!-- 302&#45;&#45;401 -->
<g id="edge98" class="edge"><title>302&#45;&#45;401</title>
<path style="fill:none;stroke:black;" d="M353,-216C353,-205 353,-191 353,-180"/>
</g>
<!-- 311&#45;&#45;401 -->
<g id="edge100" class="edge"><title>311&#45;&#45;401</title>
<path style="fill:none;stroke:black;" d="M407,-216C396,-205 382,-191 371,-180"/>
</g>
<!-- 6&#45;&#45;7 -->
<g id="edge104" class="edge"><title>6&#45;&#45;7</title>
<path style="fill:none;stroke:black;" d="M45,-360C56,-349 70,-335 81,-324"/>
</g>
</g>
</svg>
