/* XPM */
static char * icon_xpm[] = {
"40 40 121 2",
"  	c None",
". 	c #FFFFFF",
"+ 	c #FDFDFD",
"@ 	c #A8A8A8",
"# 	c #434343",
"$ 	c #0E0E0E",
"% 	c #0C0C0C",
"& 	c #575757",
"* 	c #F0F0F0",
"= 	c #E3E3E3",
"- 	c #3E3E3E",
"; 	c #000000",
"> 	c #737373",
", 	c #F8F8F8",
"' 	c #B1B1B1",
") 	c #646464",
"! 	c #323232",
"~ 	c #141414",
"{ 	c #040404",
"] 	c #030303",
"^ 	c #151515",
"/ 	c #3D3D3D",
"( 	c #777777",
"_ 	c #181818",
": 	c #929292",
"< 	c #BABABA",
"[ 	c #525252",
"} 	c #A7A7A7",
"| 	c #1D1D1D",
"1 	c #121212",
"2 	c #414141",
"3 	c #090909",
"4 	c #ACACAC",
"5 	c #FEFEFE",
"6 	c #3B3B3B",
"7 	c #9D9D9D",
"8 	c #7A7A7A",
"9 	c #5A5A5A",
"0 	c #F6F6F6",
"a 	c #FBFBFB",
"b 	c #6C6C6C",
"c 	c #EAEAEA",
"d 	c #898989",
"e 	c #AAAAAA",
"f 	c #212121",
"g 	c #F7F7F7",
"h 	c #999999",
"i 	c #8F8F8F",
"j 	c #292929",
"k 	c #D9D9D9",
"l 	c #CECECE",
"m 	c #FAFAFA",
"n 	c #7F7F7F",
"o 	c #1F1F1F",
"p 	c #686868",
"q 	c #161616",
"r 	c #808080",
"s 	c #F4F4F4",
"t 	c #454545",
"u 	c #535353",
"v 	c #F2F2F2",
"w 	c #EBEBEB",
"x 	c #484848",
"y 	c #404040",
"z 	c #CDCDCD",
"A 	c #505050",
"B 	c #080808",
"C 	c #222222",
"D 	c #050505",
"E 	c #060606",
"F 	c #757575",
"G 	c #838383",
"H 	c #010101",
"I 	c #1E1E1E",
"J 	c #4A4A4A",
"K 	c #8E8E8E",
"L 	c #E6E6E6",
"M 	c #9E9E9E",
"N 	c #C1C1C1",
"O 	c #F9F9F9",
"P 	c #282828",
"Q 	c #CCCCCC",
"R 	c #E9E9E9",
"S 	c #FCFCFC",
"T 	c #1A1A1A",
"U 	c #353535",
"V 	c #6F6F6F",
"W 	c #C8C8C8",
"X 	c #272727",
"Y 	c #BEBEBE",
"Z 	c #0B0B0B",
"` 	c #D7D7D7",
" .	c #656565",
"..	c #303030",
"+.	c #F1F1F1",
"@.	c #555555",
"#.	c #393939",
"$.	c #626262",
"%.	c #5E5E5E",
"&.	c #4D4D4D",
"*.	c #373737",
"=.	c #595959",
"-.	c #787878",
";.	c #0F0F0F",
">.	c #444444",
",.	c #E2E2E2",
"'.	c #CFCFCF",
").	c #BCBCBC",
"!.	c #7B7B7B",
"~.	c #2C2C2C",
"{.	c #111111",
"].	c #909090",
"^.	c #767676",
"/.	c #242424",
"(.	c #1C1C1C",
"_.	c #C5C5C5",
":.	c #8B8B8B",
"<.	c #070707",
"[.	c #333333",
"}.	c #919191",
"|.	c #DADADA",
". . . . . . . . . . . . . . . . . . . . . . . . . . . . . . . . . . . . . . . . ",
". . . . . . . . . . . . . . . . . . . . . . . . . . . . . . . . . . . . . . . . ",
". . . . . . . . . . . . . . . . . . . . . . . . . . . . . . . . . . . . . . . . ",
". . . . . . . . . . . . . . . . . . . . . . . . . . . . . . . . . . . . . . . . ",
". . . . . . . . . . . . . . . . . . . . . . . . . . . . . . . . . . . . . . . . ",
". . . . . . . . . . . . . . . . . . . . . . . . . . . . . . . . . . . . . . . . ",
". . . . . . . . . . . . . . . . . . . . . . . . . . . . . . . . . . . . . . . . ",
". . . . . . . . . . . . . . . . . . . . . . . . . . . . . . . . . . . . . . . . ",
". . . . . . . . . . . . . . . . . . . . . . . . . . . . . . . . . . . . . . . . ",
". . . . . . . . . . . . . . . . . . . . . . . . . . . . . . . . . . . . . . . . ",
". . . . . . . . . . . . . . . . . . . . . . . . . . . + @ # $ % & * . . . . . . ",
". . . . . . . . . . . . . . . . . . . . . . . . . . = - ; ; ; ; ; > . . . . . . ",
". . . . . . . . . . . . . . . . , ' ) ! ~ { ] ^ / ( _ ; : < ; ; ; [ . . . . . . ",
". . . . . . . . . . . . . . . } | ; ; ; ; 1 2 | ; ; ; 3 4 5 6 ; ; 7 . . . . . . ",
". . . . . . . . . . . . . . 8 ; ; ; ; ; 9 0 . a ) ; ; ; ; b c d e 5 . . . . . . ",
". . . . . . . . . . . . . ' ; ; ; ; ; f g . . . c ; ; ; ; ; h . . . . . . . . . ",
". . . . . . . . . . . . . / ; ; ; ; ; i . . . . g ; ; ; ; ; j . . . . . . . . . ",
". . . . . . . . . . . . . % ; ; ; ; ; k . . . . l ; ; ; ; ; ] . . . . . . . . . ",
". . . . . . . . . . . . . $ ; ; ; ; ; m . . . . n ; ; ; ; ; o . . . . . . . . . ",
". . . . . . . . . . . . . p ; ; ; ; ; = . . . * q ; ; ; ; ; r . . . . . . . . . ",
". . . . . . . . . . . . . s t ; ; ; ; u v . w x ; ; ; ; ; y , . . . . . . . . . ",
". . . . . . . . . . . . . z A ; ; ; ; ; B C D ; ; ; ; E F g . . . . . . . . . . ",
". . . . . . . . . . . 5 G H ; ; ; ; ; ; ; ; ; E I J K L . . . . . . . . . . . . ",
". . . . . . . . . . . M ; ; ; N O . . . . . . . . . . . . . . . . . . . . . . . ",
". . . . . . . . . . . P ; ; ; > Q R S . . . . . . . . . . . . . . . . . . . . . ",
". . . . . . . . . . . ] ; ; ; ; ; ; ] T U A V : W + . . . . . . . . . . . . . . ",
". . . . . . . . . . . X ; ; ; ; ; ; ; ; ; ; ; ; ; f 4 . . . . . . . . . . . . . ",
". . . . . . . . . . . Y Z ; ; ; ; ; ; ; ; ; ; ; ; ; ; e . . . . . . . . . . . . ",
". . . . . . . . . . . `  .; ; ; ; ; ; ; ; ; ; ; ; ; ; ... . . . . . . . . . . . ",
". . . . . . . . . +.@.; ; ; #.$.p %.&.*.T ; ; ; ; ; ; { . . . . . . . . . . . . ",
". . . . . . . . . =.; ; ; 4 . . . . . . . w -.; ; ; ; % . . . . . . . . . . . . ",
". . . . . . . . . 3 ; ; ;.5 . . . . . . . . 5 % ; ; ; >.. . . . . . . . . . . . ",
". . . . . . . . . 1 ; ; H ,.. . . . . . . . '.; ; ; ; ).. . . . . . . . . . . . ",
". . . . . . . . . !.; ; ; ~.).m . . . + k d {.; ; H ].. . . . . . . . . . . . . ",
". . . . . . . . . a ^.{ ; ; ; E o /.(.E ; ; ; ; - _.. . . . . . . . . . . . . . ",
". . . . . . . . . . . = :.&./.% H ; <._ [.9 }.|.. . . . . . . . . . . . . . . . ",
". . . . . . . . . . . . . . . . . . . . . . . . . . . . . . . . . . . . . . . . ",
". . . . . . . . . . . . . . . . . . . . . . . . . . . . . . . . . . . . . . . . ",
". . . . . . . . . . . . . . . . . . . . . . . . . . . . . . . . . . . . . . . . ",
". . . . . . . . . . . . . . . . . . . . . . . . . . . . . . . . . . . . . . . . "};
